pedal_clip_forces_x_-0.09_y_-0.06.mot
version=1
nRows=188
nColumns=4
inDegrees=yes
endheader
time	PedalClip_calcn_r_Fx	PedalClip_calcn_r_Fy	PedalClip_calcn_r_Fz
0.23401565	-200.705101366667	302.288745705276	0
0.23417799	-201.174931978014	303.130729747057	0
0.23434046	-201.645017991817	303.973927500769	0
0.23450307	-202.115082889102	304.817867107773	0
0.23466582	-202.584971258589	305.662280628394	0
0.23482873	-203.054583387824	306.506988202985	0
0.23499178	-203.523774279299	307.35171276478	0
0.23515499	-203.992286983971	308.195944392801	0
0.23531835	-204.459834663016	309.039100507519	0
0.23548189	-204.926207754407	309.880748629552	0
0.23564554	-205.3913107002	310.720663235517	0
0.23580944	-205.855093683806	311.558698424939	0
0.2359734	-206.317467115235	312.394625592964	0
0.23613768	-206.778265907861	313.228063237978	0
0.23630191	-207.237311896467	314.058609661129	0
0.23646666	-207.694485255981	314.885995671636	0
0.23663111	-208.149724675389	315.710069730055	0
0.23679646	-208.602973718265	316.530692101879	0
0.23696095	-209.054126536373	317.347632746709	0
0.23712723	-209.503022836868	318.160564204781	0
0.23729138	-209.949495143748	318.969159320528	0
0.23745931	-210.393410455564	319.773174378306	0
0.23762262	-210.834652332249	320.572402875539	0
0.23779351	-211.273083509052	321.366602844004	0
0.23795521	-211.708522051499	322.155453805905	0
0.23813193	-212.140773309689	322.938619005091	0
0.23829129	-212.569661015773	323.715803511643	0
0.23848011	-212.995027948705	324.486752790435	0
0.23863697	-213.416691497677	325.251167577921	0
0.23885493	-213.834428742487	326.008674841544	0
0.23901034	-214.248001658255	326.758869355727	0
0.23931311	-214.657233384901	327.50145201417	0
0.23934338	-215.062018244402	328.23624514016	0
0.23937366	-215.462271801101	328.963101832893	0
0.23952504	-215.857865647902	329.681794812857	0
0.23958197	-216.248645457354	330.39204341288	0
0.23976673	-216.634504294762	331.09363117696	0
0.23997026	-217.015474106696	331.786580236728	0
0.23999062	-217.391689571112	332.47109007407	0
0.24006522	-217.763277936979	333.147345996603	0
0.24019764	-218.130293515853	333.81540905561	0
0.24025691	-218.49276800273	334.475299129722	0
0.2404454	-218.850810717259	335.1271629123	0
0.24064433	-219.204699856202	335.771456758001	0
0.24066422	-219.554798634411	336.408804296758	0
0.24074012	-219.901417687315	337.039753323453	0
0.24087015	-220.244752027708	337.664665396611	0
0.24093183	-220.584951760345	338.283830462362	0
0.2411081	-220.922225285039	338.89763704833	0
0.24130705	-221.256889185676	339.506687713688	0
0.24132694	-221.589273925322	340.111631257692	0
0.24140425	-221.919610824738	340.712954948686	0
0.24153433	-222.248010627547	341.310939161343	0
0.24159937	-222.574537750571	341.905780404295	0
0.24176423	-222.899296319212	342.497733741744	0
0.24197157	-223.222480212263	343.087217749942	0
0.24199231	-223.544302301918	343.674685329894	0
0.24206719	-223.864921561948	344.260490927339	0
0.242197	-224.184428793875	344.844859482064	0
0.2422591	-224.502910534605	345.427988927371	0
0.24243553	-224.820510857348	346.010143983877	0
0.24263547	-225.137451781636	346.591707196906	0
0.24265546	-225.453982890644	347.173091405521	0
0.24273261	-225.770338542334	347.754669334918	0
0.24286288	-226.086719548666	348.33674106781	0
0.24292801	-226.403313416564	348.919572755427	0
0.24309344	-226.720302856703	349.503415350756	0
0.24330271	-227.037863588646	350.088523197947	0
0.24332364	-227.356122537323	350.675091809587	0
0.24339787	-227.675140378728	351.263233069894	0
0.24352739	-227.994894207057	351.852934922851	0
0.24358926	-228.315303269111	352.444090278082	0
0.24376983	-228.636253824673	353.036520924431	0
0.24396947	-228.957635442876	353.630043731958	0
0.24398944	-229.279355390279	354.224496751323	0
0.2440666	-229.60135714367	354.819778214488	0
0.24419716	-229.923601846722	355.415811058619	0
0.24426243	-230.246074427203	356.012553020862	0
0.24442844	-230.568784001631	356.609995932461	0
0.24463999	-230.89177137437	357.20819084969	0
0.24466115	-231.215092401971	357.807224619265	0
0.24473463	-231.538800712596	358.407190142565	0
0.24486389	-231.862894571765	359.008081858606	0
0.24492538	-232.187307024831	359.609772717323	0
0.24511184	-232.511970688927	360.212128975423	0
0.24531129	-232.836880135265	360.815127240002	0
0.24533123	-233.162053454323	361.418792644268	0
0.24540825	-233.487528074702	362.023194019664	0
0.24553895	-233.813311493356	362.628341522587	0
0.24560429	-234.1393680196	363.234164756964	0
0.24577152	-234.465620705629	363.8405175052	0
0.24598496	-234.792030594895	364.447325985299	0
0.2460063	-235.118596210902	365.054589767951	0
0.24607925	-235.445351490068	365.662377485713	0
0.24620824	-235.772312985011	366.270719548262	0
0.24626968	-236.099472206514	366.879596795286	0
0.24646061	-236.426782622068	367.488918254387	0
0.24666055	-236.754225470301	368.098650125913	0
0.24668054	-237.081814147703	368.708821304965	0
0.24675737	-237.409584263418	369.319502862932	0
0.24688838	-237.737526662115	369.930677478071	0
0.24695389	-238.065588872149	370.542243422469	0
0.24712237	-238.393697047411	371.154057962581	0
0.24733808	-238.721792373054	371.766011394957	0
0.24735965	-239.049879892525	372.378115467295	0
0.24743195	-239.378018124573	372.990482300714	0
0.2475607	-239.706252998286	373.603197436779	0
0.24762194	-240.03458021291	374.216247785266	0
0.24781956	-240.362960384174	374.829551742516	0
0.24802031	-240.691366935228	375.443057018088	0
0.24804038	-241.019840863994	376.056842058932	0
0.24811681	-241.348475392852	376.671083741342	0
0.24824784	-241.677360728106	377.285952899106	0
0.24831336	-242.006550030272	377.901548359474	0
0.24848425	-242.33603982428	378.517859788055	0
0.24870131	-242.665814961655	379.134859826563	0
0.24872301	-242.995856667713	379.752513480937	0
0.24879503	-243.326178844495	380.370841462196	0
0.24892363	-243.656850260175	380.989971948799	0
0.24898524	-243.987958206859	381.610075708286	0
0.24918543	-244.319561118247	382.231270031565	0
0.2493872	-244.65168254788	382.853607809654	0
0.24940737	-244.984340957504	383.477128447235	0
0.24948376	-245.31759729414	384.101943975386	0
0.24961569	-245.651567107177	384.728272449598	0
0.24968165	-245.986376638311	385.356355592509	0
0.24985327	-246.322117832717	385.986372437372	0
0.25007425	-246.658858806789	386.618462372237	0
0.25009634	-246.996650079823	387.252728676045	0
0.25016721	-247.335566196267	387.889313524688	0
0.25029551	-247.675687353503	388.528367996219	0
0.25035608	-248.017092287783	389.170043321014	0
0.25057556	-248.359812367804	389.814404852105	0
0.250781	-248.703879053247	390.461522988762	0
0.25080154	-249.049327901475	391.111467242909	0
0.2508774	-249.396212268545	391.764335230751	0
0.25101009	-249.7445823169	392.4202165898	0
0.25107644	-250.094464271969	393.079155277467	0
0.25124992	-250.445847939508	393.741133096994	0
0.25147403	-250.798753122956	394.406200128983	0
0.25149644	-251.153232069549	395.074471653824	0
0.2515665	-251.509351766585	395.74608739695	0
0.25169457	-251.867170147385	396.421168197913	0
0.25175467	-252.226702628041	397.099748703265	0
0.25199397	-252.587914549456	397.781765599643	0
0.25225549	-252.950782627507	398.467177628589	0
0.25228164	-253.315346447689	399.156063608348	0
0.25234621	-253.681702542325	399.848611243947	0
0.25247519	-254.049923703241	400.544964033996	0
0.25258134	-254.420036799297	401.245176892817	0
0.25264973	-254.792015030575	401.949201665709	0
0.25282396	-255.165868358046	402.657062775392	0
0.25317387	-255.5416363074	403.368845287651	0
0.25320886	-255.919375977079	404.08467127656	0
0.25327154	-256.299114573114	404.804606048077	0
0.25343371	-256.680833784732	405.528625885962	0
0.25350129	-257.064459871668	406.256593534576	0
0.25366787	-257.449874868191	406.988282771361	0
0.25391274	-257.836944555706	407.723433332249	0
0.25393723	-258.225559032242	408.461833742448	0
0.25400157	-258.615594398683	409.203243212426	0
0.25413775	-259.006892259072	409.947344264521	0
0.25428343	-259.399317094949	410.693856187688	0
0.25435626	-259.792793131999	411.442615184049	0
0.25457501	-260.187266086177	412.193508864035	0
0.25481189	-260.582689154646	412.946451017442	0
0.25516984	-260.978990984125	413.701308322669	0
0.25520563	-261.376075553098	414.457893861766	0
0.25526536	-261.773869048527	415.216058273388	0
0.25542201	-262.172345338317	415.975744187562	0
0.25548796	-262.571468672677	416.736883807489	0
0.25566653	-262.971174701122	417.499368825885	0
0.25590902	-263.371354591193	418.262999603257	0
0.25593327	-263.771946348684	419.027663170114	0
0.25599776	-264.172967582144	419.793397166565	0
0.25612979	-264.574501641721	420.560366678445	0
0.25628932	-264.976639390794	421.328755353873	0
0.25636908	-265.379444075259	422.098696863271	0
0.25660863	-265.782941039712	422.870245720277	0
0.25705144	-266.187137190549	423.643418080231	0
0.25709572	-266.591983496274	424.418124704918	0
0.25714	-266.997402751766	425.194215097193	0
0.25736141	-267.40331934685	425.97153518977	0
0.25742621	-267.809713458035	426.750039825505	0
0.25763338	-268.216593780183	427.52973186712	0
0.25784421	-268.624034504138	428.310746537081	0
0.25818517	-269.032163463598	429.093327891391	0
0.25821926	-269.441150449774	429.877806023245	0
